<svg xmlns="http://www.w3.org/2000/svg" width="433" height="577" viewBox="0 0 433 577" version="1.1"><path d="M 214 16.285 C 210.278 18.649, 209.274 20.507, 211.300 21.285 L 212.537 21.760 216.370 17.880 L 220.204 14 218.852 14.031 C 218.108 14.048, 215.925 15.063, 214 16.285 M 207 29.500 C 207 30.417, 207.484 31.005, 208.075 30.808 C 208.666 30.611, 209.150 30.023, 209.150 29.500 C 209.150 28.977, 208.666 28.389, 208.075 28.192 C 207.484 27.995, 207 28.583, 207 29.500 M 292.022 41.056 C 292.010 41.361, 293.110 43.116, 294.467 44.955 C 295.824 46.794, 296.654 48.751, 296.312 49.304 L 295.691 50.309 296.848 49.594 L 298.005 48.879 297.031 47.189 C 295.658 44.808, 292.049 40.389, 292.022 41.056 M 208.250 42.718 C 207.563 42.965, 207 44.043, 207 45.115 C 207 46.186, 206.353 47.311, 205.563 47.614 L 204.126 48.166 204.665 49.569 L 205.203 50.972 202.602 51.961 C 199.405 53.177, 199.199 53.982, 202.250 53.337 L 204.500 52.861 200.868 56.184 C 196.379 60.293, 190.006 70.673, 190.003 73.884 C 190 76.684, 187.997 84.114, 186.904 85.377 C 186.487 85.859, 186.566 87.360, 187.080 88.711 C 187.594 90.062, 187.760 91.580, 187.448 92.084 L 186.882 93 189.512 93 C 190.959 93, 192.807 93.664, 193.619 94.476 L 195.096 95.953 193.967 98.062 C 193.346 99.222, 193.072 100.406, 193.359 100.692 C 193.645 100.979, 193.344 101.795, 192.690 102.506 L 191.500 103.799 190.087 102.650 L 188.675 101.500 188.254 102.750 C 188.023 103.437, 187.001 104, 185.984 104 L 184.135 104 183.500 106 C 183.151 107.100, 182.293 108, 181.593 108 C 180.152 108, 178 112.158, 178 114.941 L 178 116.787 181.750 115.984 C 183.813 115.541, 188.200 114.885, 191.500 114.525 L 197.500 113.869 201.733 114.825 L 205.967 115.780 201.362 110.390 C 198.829 107.425, 197.102 105, 197.524 105 C 199.540 105, 213.185 112.318, 213.707 113.680 L 214.302 115.230 218.446 114.662 C 220.726 114.350, 223.358 113.800, 224.295 113.440 L 226 112.786 226 115.310 C 226 116.698, 226.563 118.060, 227.250 118.338 L 228.500 118.842 226.797 118.921 C 224.381 119.033, 220 121.153, 220 122.211 L 220 123.100 224.715 122.800 L 229.430 122.500 229.790 124.260 L 230.150 126.020 227.098 126.630 C 225.419 126.966, 223.622 127.750, 223.105 128.373 C 222.589 128.996, 221.844 135.843, 221.451 143.590 L 220.736 157.674 222.463 159.087 C 223.413 159.864, 225.251 161.470, 226.547 162.657 C 227.844 163.843, 230.613 165.360, 232.702 166.027 C 234.791 166.695, 236.913 167.622, 237.417 168.088 L 238.334 168.934 236.417 169.649 C 233.362 170.788, 224.570 177.533, 221.707 180.937 L 219.084 184.053 219.889 186.229 L 220.694 188.405 227.058 189.818 L 233.423 191.232 233.795 190.116 C 234.379 188.364, 236.805 188.805, 239.077 191.077 L 241.155 193.155 240.615 194.560 L 240.076 195.966 238.530 195.373 C 237.680 195.047, 235.976 195.433, 234.742 196.232 C 233.509 197.030, 231.262 197.988, 229.750 198.361 C 225.901 199.309, 226.323 200.745, 231 202.617 C 235.090 204.253, 236.040 205.664, 233.667 206.574 C 232.933 206.856, 232.333 207.742, 232.333 208.543 L 232.333 210 238.417 210.158 C 241.762 210.246, 245.400 210.251, 246.500 210.171 L 248.500 210.026 246.559 211.513 C 245.491 212.331, 244.029 213.056, 243.309 213.125 C 242.589 213.194, 241.550 213.363, 241 213.500 C 240.450 213.637, 239.296 213.806, 238.435 213.875 C 237.574 213.944, 234.364 216.505, 231.302 219.568 L 225.734 225.135 227.036 227.568 C 227.752 228.905, 228.712 230, 229.169 230 C 229.626 230, 230.001 230.563, 230.002 231.250 C 230.004 232.359, 232.559 233.829, 244.734 239.731 L 247.969 241.298 255.048 240.129 C 258.941 239.486, 262.553 239.224, 263.074 239.546 L 264.021 240.131 262.707 242.008 C 261.984 243.040, 258.942 245.551, 255.946 247.589 C 252.951 249.627, 248.203 253.735, 245.396 256.717 L 240.292 262.141 244.286 265.320 C 246.482 267.069, 255.703 276.825, 264.778 287 C 273.853 297.175, 286.953 311.514, 293.889 318.864 C 300.825 326.214, 306.393 332.610, 306.262 333.078 C 306.131 333.545, 306.694 333.671, 307.512 333.357 L 309 332.786 309 334.200 C 309 334.978, 311.813 337.682, 315.250 340.209 C 323.410 346.208, 340.840 363.271, 344.659 369 C 349.528 376.303, 360.517 398.131, 361.776 403 C 363.101 408.122, 365.633 421.543, 366.397 427.500 C 366.680 429.700, 367.149 437.800, 367.439 445.500 C 368.769 480.773, 369.315 490.080, 370.011 489.319 C 372.760 486.310, 375.475 459.652, 376.510 425.500 C 376.810 415.600, 377.247 405.363, 377.481 402.750 L 377.906 398 376.830 398 L 375.755 398 377.018 396.479 L 378.280 394.958 378.437 388.229 C 378.524 384.528, 378.181 380.938, 377.675 380.250 C 377.169 379.563, 377.018 379, 377.340 379 C 378.159 379, 371.783 364.218, 366.419 353.680 C 360.589 342.227, 359.687 340.635, 358.570 339.830 C 358.059 339.461, 357.530 338.408, 357.395 337.488 C 357.101 335.484, 356 334.178, 356 335.833 L 356 337 354.159 335.250 C 353.146 334.287, 352.527 333.114, 352.784 332.643 L 353.250 331.786 350.375 332.390 L 347.500 332.993 345.738 329.747 C 344.193 326.899, 335.468 308.954, 331.519 300.500 C 329.051 295.216, 324.406 284.675, 321.916 278.710 C 320.587 275.525, 317.638 270.711, 315.363 268.010 C 313.087 265.310, 310.238 261.503, 309.031 259.550 L 306.837 256 305.168 255.968 C 303.010 255.927, 301.037 254.329, 297.805 250 L 295.191 246.500 294.589 240.351 C 293.722 231.496, 292.255 224.381, 290.824 222.090 L 289.582 220.100 291.294 216.800 C 292.235 214.985, 294.574 210.800, 296.491 207.500 C 298.408 204.200, 300.918 198.688, 302.070 195.250 C 303.221 191.813, 304.524 189, 304.965 189 C 305.406 189, 306.091 186.188, 306.487 182.750 C 306.883 179.313, 307.378 175.600, 307.586 174.500 C 308.170 171.423, 308.044 135.079, 307.432 130 C 306.426 121.663, 300.091 105, 297.927 105 C 297.417 105, 297 103.186, 297 100.969 L 297 96.937 298.500 96.362 C 299.325 96.045, 300 95.314, 300 94.738 C 300 94.162, 299.053 94.547, 297.895 95.595 C 296.737 96.643, 295.612 97.388, 295.395 97.250 C 295.178 97.112, 294.523 97, 293.941 97 L 292.882 97 293.566 98.107 L 294.250 99.214 294.875 98.203 C 295.525 97.151, 296.190 105.806, 296.318 117 L 296.392 123.500 294.563 128.910 L 292.733 134.319 288.472 138.581 C 283.242 143.811, 277.922 147.167, 272 148.973 C 269.525 149.728, 266.350 151.393, 264.945 152.673 L 262.391 155 259.763 155 L 257.135 155 256.435 152.794 L 255.735 150.588 256.913 150.196 C 257.561 149.980, 255.452 148.555, 252.226 147.029 C 245.932 144.053, 240.220 139.522, 236.922 134.890 L 234.874 132.014 236.485 132.633 L 238.096 133.251 235.836 128.375 C 234.594 125.694, 232.517 122.028, 231.222 120.229 L 228.866 116.958 229.183 114.807 L 229.500 112.657 231.750 112.496 C 232.987 112.407, 234.130 112.147, 234.291 111.917 C 234.452 111.688, 235.784 109.624, 237.252 107.331 C 241.879 100.104, 250.345 95.161, 265.305 90.952 L 272.500 88.928 283.500 88.357 C 294.132 87.806, 299.050 87, 291.785 87 L 288.237 87 285.410 83.293 C 280.363 76.677, 262.483 59.291, 258.438 57.068 C 256.272 55.877, 252.250 53.590, 249.500 51.986 C 242.191 47.722, 240.051 46.870, 234.500 46.018 C 231.750 45.595, 230.063 45.193, 230.750 45.125 C 231.438 45.056, 232 44.660, 232 44.243 C 232 43.827, 227.746 43.629, 222.547 43.804 L 213.093 44.120 211.297 43.195 C 210.308 42.687, 208.938 42.472, 208.250 42.718 M 177.660 47.396 C 176.797 48.714, 175.809 51.076, 175.464 52.646 L 174.838 55.500 176 54 L 177.162 52.500 176.599 57 L 176.036 61.500 177.367 58.500 C 178.098 56.850, 178.521 55.013, 178.306 54.418 C 178.091 53.822, 178.336 51.460, 178.851 49.168 C 179.366 46.875, 179.662 45, 179.509 45 C 179.355 45, 178.524 46.078, 177.660 47.396 M 180.028 50.466 C 179.359 51.273, 178.983 52.449, 179.193 53.080 L 179.576 54.227 180.766 51.613 C 182.101 48.684, 181.842 48.281, 180.028 50.466 M 160 53.044 C 160 53.435, 160.581 54.237, 161.291 54.827 L 162.582 55.898 162.716 54.116 L 162.851 52.333 161.425 52.333 C 160.641 52.333, 160 52.653, 160 53.044 M 287.500 57 C 288.495 58.100, 289.469 59, 289.663 59 C 289.858 59, 289.455 58.100, 288.768 57 C 288.081 55.900, 287.107 55, 286.604 55 C 286.102 55, 286.505 55.900, 287.500 57 M 173.605 57.588 C 173.272 58.454, 173 60.278, 173 61.641 L 173 64.118 173.885 63.571 C 175.029 62.864, 175.891 57.050, 174.938 56.462 C 174.537 56.214, 173.937 56.721, 173.605 57.588 M 163.469 61.500 C 163.211 62.325, 162.774 63.788, 162.498 64.750 L 161.995 66.500 163.498 64.559 C 164.963 62.665, 165.531 60, 164.469 60 C 164.176 60, 163.726 60.675, 163.469 61.500 M 166.565 62.875 L 167.214 65.250 166.179 64.611 L 165.144 63.971 164.489 66.033 L 163.835 68.096 165.031 69.537 C 166.331 71.104, 168.048 70.601, 167.921 68.691 L 167.842 67.500 167.336 68.756 C 166.691 70.356, 165 69.361, 165 67.382 C 165 66.557, 165.359 66.104, 165.798 66.375 C 166.237 66.646, 167.098 66.557, 167.713 66.177 L 168.831 65.487 167.374 62.993 L 165.917 60.500 166.565 62.875 M 326 77.882 C 326 78.982, 326.450 80.160, 327 80.500 L 328 81.118 328 79.118 C 328 78.018, 327.550 76.840, 327 76.500 L 326 75.882 326 77.882 M 324.189 80.500 C 324.215 81.600, 324.580 83.850, 325 85.500 L 325.763 88.500 325.811 85.500 C 325.838 83.850, 325.473 81.600, 325 80.500 L 324.141 78.500 324.189 80.500 M 297.155 87.671 C 298.066 87.913, 299.100 89.264, 299.454 90.673 C 299.808 92.083, 300.354 92.979, 300.669 92.665 C 300.983 92.350, 300.953 90.947, 300.601 89.547 L 299.962 87 297.731 87.116 L 295.500 87.232 297.155 87.671 M 272.500 91.602 C 263.936 93.677, 250.535 98.543, 246.714 100.966 L 242.088 103.900 239.377 108.194 L 236.667 112.488 236.707 117.994 L 236.748 123.500 239.028 129.469 L 241.308 135.438 246.503 140.634 L 251.699 145.830 255.945 147.102 L 260.190 148.374 266.410 147.308 C 269.831 146.722, 275.236 144.967, 278.420 143.408 L 284.210 140.573 287.551 136.670 C 289.388 134.523, 291.591 130.714, 292.446 128.205 L 294 123.644 293.994 115.072 C 293.987 104.367, 292.693 99.601, 288.621 95.285 L 285.427 91.900 279.964 91.509 C 276.959 91.294, 273.600 91.336, 272.500 91.602 M 318.118 101.500 C 318.100 102.050, 318.702 104.975, 319.457 108 L 320.830 113.500 320.839 110.500 C 320.847 107.816, 318.201 99.062, 318.118 101.500 M 333 102.941 C 333 103.459, 333.450 104.160, 334 104.500 C 334.550 104.840, 335 106.066, 335 107.226 C 335 108.385, 335.268 109.066, 335.595 108.738 C 336.463 107.870, 335.005 102, 333.921 102 C 333.414 102, 333 102.423, 333 102.941 M 268.500 104.348 C 267.400 104.982, 265.916 105.878, 265.201 106.339 L 263.903 107.178 264.894 108.373 L 265.886 109.567 265.068 110.890 L 264.250 112.214 263.566 111.107 C 263.190 110.498, 263.160 109.550, 263.500 109 C 264.500 107.382, 263.008 107.848, 260.255 110.014 C 258.847 111.122, 257.426 111.735, 257.097 111.377 C 256.769 111.019, 257.056 110.527, 257.737 110.284 C 258.417 110.041, 259.992 108.993, 261.237 107.954 L 263.500 106.067 261.564 106.033 C 260.500 106.015, 258.653 106.917, 257.460 108.037 L 255.292 110.075 255.757 112.507 C 256.012 113.844, 256.814 115.431, 257.539 116.032 L 258.856 117.126 261.714 115.648 C 263.285 114.836, 265.185 113.023, 265.936 111.619 C 266.687 110.216, 267.684 109.304, 268.151 109.593 C 268.618 109.882, 269 109.381, 269 108.480 L 269 106.841 272 107.500 L 275 108.159 275 106.520 C 275 105.619, 274.597 105.131, 274.105 105.435 C 273.612 105.740, 272.952 105.316, 272.636 104.494 C 271.976 102.774, 271.276 102.749, 268.500 104.348 M 333.115 113 C 333.069 114.375, 333.467 116.175, 334 117 L 334.969 118.500 334.885 117 C 334.839 116.175, 334.440 114.375, 334 113 L 333.199 110.500 333.115 113 M 336.598 114 C 336.941 115.925, 337.201 118.279, 337.175 119.230 C 337.149 120.182, 337.549 121.221, 338.064 121.539 L 339 122.118 338.924 119.809 C 338.882 118.539, 338.201 115.925, 337.411 114 L 335.974 110.500 336.598 114 M 182.676 118.403 C 180.572 119.180, 178.664 120.002, 178.436 120.231 C 178.208 120.459, 179.318 121.889, 180.904 123.408 L 183.787 126.170 190.643 126.493 C 194.415 126.671, 198.314 126.858, 199.309 126.909 L 201.118 127 200.527 127.956 C 200.202 128.482, 199.307 128.671, 198.537 128.376 L 197.139 127.839 196.819 131.170 L 196.500 134.500 193.470 136.015 L 190.440 137.530 191.961 140.239 L 193.481 142.948 191.753 144.676 L 190.025 146.404 183.540 146.817 L 177.054 147.230 175.937 148.575 C 175.323 149.316, 174.790 151.935, 174.753 154.396 L 174.685 158.871 176.422 161.522 C 179.090 165.594, 177.620 165.555, 173.056 161.432 L 168.935 157.709 165.467 150.499 L 162 143.290 162 138.079 C 162 135.213, 162.495 131.944, 163.100 130.814 L 164.200 128.759 163.173 129.393 C 162.608 129.742, 161.627 131.601, 160.992 133.524 L 159.838 137.020 160.913 142.031 C 162.938 151.471, 169.852 162.791, 175.414 165.772 L 178.500 167.426 187.568 167.463 L 196.635 167.500 202.568 164.474 L 208.500 161.448 208.814 157.086 C 209.161 152.275, 207.590 147.440, 205.408 146.603 C 204.634 146.306, 204 145.458, 204 144.719 C 204 143.018, 209.706 138.747, 212.167 138.606 C 213.189 138.548, 214.020 138.162, 214.013 137.750 C 214.006 137.338, 214 136.502, 214 135.893 L 214 134.786 212.500 135.362 L 211 135.937 211 134.528 C 211 133.752, 211.410 132.865, 211.911 132.555 C 213.035 131.860, 212.794 130.210, 211.125 127.172 C 210.422 125.891, 210.111 124.154, 210.434 123.311 L 211.023 121.777 209.523 122.353 L 208.024 122.928 208.262 121.781 C 208.393 121.150, 207.150 119.940, 205.500 119.093 L 202.500 117.553 194.500 117.272 L 186.500 116.990 182.676 118.403 M 339.391 123.690 L 338.282 124.073 339.014 128.076 C 339.808 132.420, 340.595 133.738, 341.721 132.612 C 342.118 132.216, 341.809 131.500, 341.035 131.022 L 339.629 130.152 340.830 128.705 L 342.031 127.258 341.265 125.283 C 340.844 124.197, 340.001 123.480, 339.391 123.690 M 203 128.800 C 203 130.297, 205.394 132, 207.450 131.967 L 209.500 131.933 207.139 129.967 C 204.672 127.911, 203 127.440, 203 128.800 M 342.670 142.766 C 342.984 144.012, 343.637 145.276, 344.121 145.575 C 345.489 146.420, 345.156 144.591, 343.550 142.441 L 342.099 140.500 342.670 142.766 M 242.687 161.805 C 241.209 163.347, 240.001 164.810, 240.001 165.055 C 240.002 165.300, 242.679 165.500, 245.951 165.500 L 251.899 165.500 253.126 164.274 L 254.353 163.047 252.521 161.024 L 250.690 159 248.032 159 L 245.374 159 242.687 161.805 M 276.750 167.162 L 281 171.576 281.015 173.538 C 281.024 174.617, 281.467 176.175, 282 177 L 282.969 178.500 282.985 175.338 L 283 172.177 284.471 172.393 C 285.280 172.512, 286.243 172.910, 286.611 173.277 C 287.676 174.343, 289 173.055, 289 170.954 L 289 169.025 285.052 166.533 C 282.880 165.162, 279.168 163.749, 276.802 163.394 L 272.500 162.748 276.750 167.162 M 203.244 166.739 C 202.553 166.976, 202.176 167.476, 202.407 167.850 C 202.638 168.223, 201.461 168.584, 199.791 168.652 C 198.122 168.721, 196.466 169.247, 196.111 169.821 C 195.755 170.396, 193.223 171.613, 190.482 172.526 C 187.742 173.439, 184.837 174.823, 184.027 175.601 L 182.554 177.017 184.396 180.437 C 185.409 182.317, 188.029 185.296, 190.218 187.055 L 194.199 190.254 193.623 193.133 L 193.048 196.011 194.221 198.586 L 195.394 201.160 199.241 203.123 C 201.356 204.202, 204.049 206.191, 205.224 207.543 C 210.170 213.231, 211.820 209.114, 208.028 200.546 C 205.403 194.616, 203.528 189.639, 203.489 188.500 C 203.471 187.950, 204.253 184.585, 205.228 181.022 C 207.170 173.922, 207.516 169, 206.073 169 C 205.564 169, 205.001 168.394, 204.823 167.653 C 204.645 166.913, 203.935 166.501, 203.244 166.739 M 146.032 178.993 C 146.565 180.915, 147 182.588, 147 182.712 C 147 182.836, 146.213 182.684, 145.250 182.374 L 143.500 181.811 144.813 182.753 C 145.534 183.271, 146.164 185.064, 146.212 186.737 L 146.298 189.779 147.620 189.585 C 148.347 189.479, 149.292 189.041, 149.719 188.614 L 150.497 187.836 148.557 186.418 L 146.618 185 148.509 185 L 150.400 185 149.200 183.800 C 148.540 183.140, 148 181.876, 148 180.991 C 148 180.106, 147.340 178.509, 146.532 177.441 L 145.064 175.500 146.032 178.993 M 272.607 180.582 C 271.748 182.821, 271.784 182.869, 273.931 182.308 C 274.993 182.030, 276.104 181.172, 276.399 180.401 L 276.937 179 275.076 179 C 274.052 179, 272.941 179.712, 272.607 180.582 M 155.084 180.500 C 155.084 181.050, 155.946 183.075, 157 185 C 158.054 186.925, 158.916 188.050, 158.916 187.500 C 158.916 186.950, 158.054 184.925, 157 183 C 155.946 181.075, 155.084 179.950, 155.084 180.500 M 160.064 191.500 C 160.064 192.050, 160.724 193.374, 161.532 194.441 C 162.339 195.509, 163 195.932, 163 195.382 C 163 194.832, 162.339 193.509, 161.532 192.441 C 160.724 191.374, 160.064 190.950, 160.064 191.500 M 245 193 L 243.500 193.969 245 193.969 C 245.825 193.969, 247.175 193.533, 248 193 L 249.500 192.031 248 192.031 C 247.175 192.031, 245.825 192.467, 245 193 M 307.070 205.691 C 307.032 206.896, 307.450 208.160, 308 208.500 C 309.183 209.231, 309.183 208.252, 308 205.500 L 307.141 203.500 307.070 205.691 M 425.250 332.192 L 419 334.174 419 335.420 C 419 336.106, 420.484 338.384, 422.298 340.482 L 425.597 344.298 429.121 343.637 L 432.646 342.976 432.717 338.453 L 432.789 333.930 431.318 335.151 L 429.848 336.371 428.939 334.936 L 428.031 333.500 428.015 335.527 C 428.007 336.643, 428.665 338.505, 429.479 339.666 L 430.958 341.778 428.729 342.394 L 426.500 343.011 423.750 339.793 C 422.238 338.023, 421 336.280, 421 335.920 C 421 335.559, 423.700 334.506, 427 333.580 C 430.300 332.654, 433 331.470, 433 330.948 C 433 329.761, 432.838 329.787, 425.250 332.192 M 331.624 411.800 C 331.352 412.240, 332.225 412.600, 333.565 412.600 C 334.904 412.600, 336 412.240, 336 411.800 C 336 411.360, 335.127 411, 334.059 411 C 332.991 411, 331.896 411.360, 331.624 411.800 M 345.684 412.649 C 345.328 413.006, 343.790 413.385, 342.268 413.492 C 340.746 413.599, 338.488 413.757, 337.250 413.843 C 333.003 414.139, 335.004 415.500, 339.752 415.545 C 342.363 415.569, 345.515 415.938, 346.755 416.364 L 349.010 417.138 349.651 415.468 L 350.291 413.798 348.896 412.914 C 347.213 411.849, 346.540 411.793, 345.684 412.649 M 416.226 418.250 C 415.665 418.938, 414.693 421.300, 414.066 423.500 L 412.924 427.500 413.840 433.500 L 414.756 439.500 414.957 434 C 415.067 430.975, 415.385 429.063, 415.662 429.750 C 415.940 430.438, 416.606 431, 417.142 431 C 417.679 431, 417.840 430.550, 417.500 430 C 417.160 429.450, 417.347 429, 417.916 429 L 418.950 429 418.388 432.250 C 418.080 434.038, 417.643 436.094, 417.418 436.819 L 417.010 438.138 419.218 437.819 L 421.426 437.500 422.136 434.011 L 422.845 430.522 421.791 429.871 L 420.736 429.219 421.388 425.744 C 422.094 421.984, 421.317 418.686, 419.928 419.545 C 419.454 419.838, 419.315 421.323, 419.619 422.845 L 420.172 425.612 418.394 427.056 C 417.416 427.850, 416.898 428.029, 417.242 427.452 C 417.586 426.876, 417.481 425.778, 417.007 425.011 L 416.146 423.618 417.552 420.899 C 418.325 419.404, 419.530 417.951, 420.229 417.669 L 421.500 417.158 419.372 417.079 C 418.202 417.036, 416.786 417.563, 416.226 418.250 M 419.769 433.956 C 419.078 436.417, 419.491 437.842, 420.581 436.753 C 420.900 436.433, 421.004 435.121, 420.810 433.836 L 420.459 431.500 419.769 433.956 M 413.545 536.250 C 413.919 537.487, 414.636 538.940, 415.140 539.477 C 415.643 540.015, 415.548 539.002, 414.929 537.227 C 413.663 533.594, 412.493 532.769, 413.545 536.250 M 357.750 559.728 C 359.273 560.238, 359.416 562, 357.934 562 C 357.348 562, 355.998 561.534, 354.934 560.965 L 353 559.930 353 561.024 C 353 561.626, 352.588 561.864, 352.085 561.553 C 351.582 561.242, 350.232 562.506, 349.085 564.362 L 347 567.736 347 571.809 C 347 574.049, 347.382 576.118, 347.850 576.407 L 348.700 576.933 348.243 572.177 L 347.786 567.422 349.643 565.961 L 351.500 564.500 350.360 566 C 348.988 567.805, 348.874 572.829, 350.149 575.250 L 351.070 577 357.962 577 L 364.853 577 365.311 575.250 L 365.768 573.500 365.884 575.250 L 366 577 368.375 577 L 370.750 577 371.364 573.929 L 371.978 570.859 370.490 567.981 C 368.570 564.268, 363.320 560.343, 359.500 559.764 C 357.850 559.514, 357.063 559.498, 357.750 559.728 M 353.270 563.474 L 352.040 564.873 353.853 564.736 C 354.851 564.661, 355.667 564.015, 355.667 563.300 C 355.667 561.641, 354.829 561.702, 353.270 563.474 M 357.638 564.224 C 357.913 564.669, 358.590 564.753, 359.143 564.412 C 359.696 564.070, 361.352 564.850, 362.824 566.145 L 365.500 568.500 363.142 565.820 L 360.783 563.141 358.961 563.278 C 357.959 563.353, 357.363 563.779, 357.638 564.224 M 351.437 567.102 L 350.691 568.309 351.957 567.526 L 353.224 566.744 354.188 568.122 L 355.152 569.500 354.764 568.063 C 354.245 566.143, 352.365 565.600, 351.437 567.102 M 355.954 572.086 C 355.340 573.233, 355.026 574.360, 355.257 574.590 C 355.487 574.820, 356.189 573.882, 356.816 572.504 C 358.194 569.480, 357.523 569.154, 355.954 572.086" stroke="none" fill="#ceaba2" fill-rule="evenodd"/><path d="M 241.269 8.693 C 242.242 8.947, 243.592 8.930, 244.269 8.656 C 244.946 8.382, 244.150 8.175, 242.500 8.195 L 239.500 8.232 241.269 8.693 M 219 10.631 C 216.525 11.475, 213.983 12.827, 213.351 13.636 L 212.202 15.106 211.680 13.803 L 211.158 12.500 211.079 14.750 L 211 17 208.750 17.171 C 207.512 17.265, 204.925 17.472, 203 17.632 C 201.075 17.792, 195.450 18.171, 190.500 18.476 C 185.550 18.781, 179.361 19.735, 176.747 20.597 L 171.994 22.163 168.247 26.016 C 163.811 30.578, 159 36.511, 159 37.420 C 159 37.774, 157.046 41.088, 154.659 44.782 C 149.576 52.647, 145.171 60.692, 142.492 67 C 141.441 69.475, 139.459 73.300, 138.087 75.500 C 136.715 77.700, 135.502 79.950, 135.392 80.500 C 135.282 81.050, 133.557 85.744, 131.559 90.931 C 127.403 101.723, 126.413 105.709, 125.457 115.500 C 125.081 119.350, 124.557 122.863, 124.293 123.306 C 124.029 123.749, 123.583 126.449, 123.303 129.306 C 123.022 132.163, 122.364 135.304, 121.842 136.286 C 120.238 139.299, 118.188 154.799, 117.514 169 C 116.965 180.565, 115.553 190.278, 113.406 197.244 L 112.869 198.987 114.307 198.436 L 115.745 197.884 115.227 200.591 L 114.710 203.297 115.955 202.528 L 117.200 201.759 115.994 204.011 L 114.789 206.263 114.251 217.779 L 113.714 229.295 114.857 228.589 C 115.486 228.200, 116 227.236, 116 226.447 L 116 225.013 117.750 225.404 C 121.965 226.348, 124 227.312, 124.005 228.367 C 124.007 228.990, 125.582 231.213, 127.505 233.306 C 129.427 235.399, 131 237.488, 131 237.949 C 131 238.409, 131.605 239.018, 132.343 239.302 C 133.813 239.866, 140.754 252.604, 139.979 253.315 C 139.715 253.557, 130.520 253.369, 119.544 252.898 L 99.587 252.041 97.288 253.547 C 96.023 254.376, 93.303 257.345, 91.244 260.145 C 89.185 262.945, 84.296 268.670, 80.380 272.868 C 76.463 277.065, 70.951 283.764, 68.130 287.754 L 63 295.007 63 299.395 L 63 303.782 59.064 308.545 C 54.584 313.967, 43.245 334.839, 37.019 349.124 L 32.825 358.748 28.913 363.483 L 25 368.218 25 373.127 L 25 378.036 20.115 387.771 L 15.230 397.506 10.160 399.648 L 5.091 401.790 4.399 404.546 L 3.707 407.302 4.854 410.472 C 6.492 415.004, 6.298 416.033, 2.972 420.428 L 0 424.356 0 500.678 L 0 577 41.474 577 L 82.949 577 84.495 574.010 C 85.345 572.366, 85.993 570.729, 85.935 570.372 C 85.877 570.016, 86.257 569.448, 86.780 569.112 C 87.902 568.390, 92.014 560.486, 92.491 558.133 C 92.673 557.235, 93.387 555.150, 94.077 553.500 C 94.768 551.850, 95.426 550.163, 95.541 549.750 C 95.656 549.337, 95.841 548.888, 95.952 548.750 C 96.062 548.612, 96.301 547.825, 96.483 547 C 96.664 546.175, 97.337 543.475, 97.977 541 C 98.618 538.525, 99.491 530.875, 99.918 524 L 100.694 511.500 103.597 505.546 C 105.194 502.271, 107.269 498.803, 108.209 497.838 C 112.996 492.921, 117.559 478.666, 118.480 465.751 C 119.107 456.962, 121.013 449.340, 122.498 449.685 C 122.936 449.787, 124.525 452.712, 126.027 456.185 L 128.760 462.500 129.403 471.579 L 130.046 480.658 127.618 486.079 L 125.190 491.500 123.533 501.488 L 121.876 511.476 114.988 525.488 L 108.100 539.500 103.130 554.563 C 100.397 562.848, 97.849 571.286, 97.469 573.313 L 96.777 577 222.146 577 L 347.514 577 347.159 572.527 L 346.803 568.055 348.987 564.521 C 350.188 562.578, 351.582 561.242, 352.085 561.553 C 352.588 561.864, 353 561.626, 353 561.024 L 353 559.930 354.934 560.965 C 355.998 561.534, 357.348 562, 357.934 562 C 359.416 562, 359.273 560.238, 357.750 559.728 C 357.063 559.498, 357.850 559.514, 359.500 559.764 C 363.320 560.343, 368.570 564.268, 370.490 567.981 L 371.978 570.859 371.364 573.929 L 370.750 577 398.442 577 L 426.135 577 425.441 574.750 C 424.407 571.399, 422.284 567.463, 417.394 559.835 C 412.861 552.763, 411.406 548.704, 415.078 553.371 C 416.220 554.824, 418.069 556.501, 419.185 557.099 L 421.215 558.185 422.161 557.239 L 423.107 556.293 419.633 544.397 C 417.723 537.854, 415.463 529.801, 414.610 526.503 L 413.061 520.506 415.733 516.503 C 417.202 514.301, 419.841 510.130, 421.597 507.233 L 424.790 501.966 427.725 507.233 C 429.339 510.130, 431.074 513.400, 431.580 514.500 L 432.500 516.500 433.029 546.500 L 433.558 576.500 433.779 519.915 C 433.900 488.793, 433.701 436.262, 433.336 403.179 L 432.672 343.029 428.994 343.617 L 425.315 344.205 422.157 340.375 C 420.421 338.268, 419 336.016, 419 335.370 L 419 334.195 426.031 332.059 L 433.061 329.924 432.469 321.366 C 431.574 308.449, 425.766 291.544, 420.196 285.646 C 416.326 281.549, 407.166 274.620, 402.500 272.262 C 400.300 271.150, 396.475 269.920, 394 269.530 C 391.525 269.140, 385.225 267.783, 380 266.516 C 374.775 265.248, 365.325 263.653, 359 262.972 C 352.675 262.290, 346.403 261.173, 345.062 260.490 C 343.722 259.807, 338.029 255.029, 332.412 249.874 L 322.200 240.500 323.210 239.873 C 323.766 239.527, 324.968 239.440, 325.881 239.679 C 326.794 239.918, 329.546 239.663, 331.996 239.112 L 336.451 238.111 337.110 239.178 L 337.769 240.244 343.134 239.015 C 346.085 238.340, 349.306 237.369, 350.291 236.859 C 351.276 236.350, 352.516 236.201, 353.048 236.530 C 353.579 236.858, 354.321 236.311, 354.696 235.313 C 355.071 234.316, 356.845 231.195, 358.638 228.378 C 360.431 225.561, 362.215 221.961, 362.603 220.378 C 362.991 218.795, 363.679 217.254, 364.133 216.954 C 364.855 216.476, 365.424 194.760, 365.087 180.500 L 364.969 175.500 364.039 176.971 C 362.777 178.966, 362.344 178.274, 361.555 173 L 360.882 168.500 361.926 170 C 362.500 170.825, 362.976 172.363, 362.985 173.417 C 362.993 174.471, 363.254 175.079, 363.564 174.769 C 364.418 173.915, 362.900 166.944, 361.984 167.510 C 361.545 167.781, 361.401 167.181, 361.664 166.176 C 361.927 165.171, 361.183 161.683, 360.010 158.425 C 353.554 140.484, 351.833 135.122, 351.375 131.518 C 351.097 129.329, 350.515 127.304, 350.083 127.018 C 349.333 126.523, 348.357 123.137, 347.544 118.202 C 347.336 116.938, 346.761 115.363, 346.266 114.702 C 345.771 114.041, 344.498 110.800, 343.437 107.500 C 342.376 104.200, 341.227 101.275, 340.883 101 C 340.540 100.725, 339.998 98.925, 339.679 97 C 338.791 91.636, 334.918 76.765, 333.779 74.345 L 332.764 72.191 333.537 70.941 L 334.309 69.691 333.236 70.354 L 332.163 71.017 331.511 68.050 C 329.541 59.079, 318.600 43.069, 308.954 35.042 C 305.572 32.227, 299.137 28.077, 294.653 25.819 L 286.500 21.714 277.249 19.418 C 272.162 18.155, 265.862 16.813, 263.249 16.435 C 260.637 16.057, 258.050 15.397, 257.500 14.967 C 256.950 14.538, 253.962 13.919, 250.860 13.591 C 247.758 13.264, 243.965 12.344, 242.431 11.548 L 239.641 10.101 238.146 10.938 L 236.652 11.774 233.776 10.772 C 232.195 10.221, 229.461 10.046, 227.700 10.384 L 224.500 10.997 226 10.014 L 227.500 9.031 225.500 9.063 C 224.400 9.081, 221.475 9.786, 219 10.631 M 214 16.285 C 210.278 18.649, 209.274 20.507, 211.300 21.285 L 212.537 21.760 216.370 17.880 L 220.204 14 218.852 14.031 C 218.108 14.048, 215.925 15.063, 214 16.285 M 176.500 16 C 177.600 16.473, 179.175 16.859, 180 16.859 L 181.500 16.859 179.500 16 C 178.400 15.527, 176.825 15.141, 176 15.141 L 174.500 15.141 176.500 16 M 207 29.500 C 207 30.417, 207.484 31.005, 208.075 30.808 C 208.666 30.611, 209.150 30.023, 209.150 29.500 C 209.150 28.977, 208.666 28.389, 208.075 28.192 C 207.484 27.995, 207 28.583, 207 29.500 M 292.022 41.056 C 292.010 41.361, 293.110 43.116, 294.467 44.955 C 295.824 46.794, 296.654 48.751, 296.312 49.304 L 295.691 50.309 296.848 49.594 L 298.005 48.879 297.031 47.189 C 295.658 44.808, 292.049 40.389, 292.022 41.056 M 208.250 42.718 C 207.563 42.965, 207 44.043, 207 45.115 C 207 46.186, 206.353 47.311, 205.563 47.614 L 204.126 48.166 204.665 49.569 L 205.203 50.972 202.602 51.961 C 199.405 53.177, 199.199 53.982, 202.250 53.337 L 204.500 52.861 200.868 56.184 C 196.379 60.293, 190.006 70.673, 190.003 73.884 C 190 76.684, 187.997 84.114, 186.904 85.377 C 186.487 85.859, 186.566 87.360, 187.080 88.711 C 187.594 90.062, 187.760 91.580, 187.448 92.084 L 186.882 93 189.512 93 C 190.959 93, 192.807 93.664, 193.619 94.476 L 195.096 95.953 193.967 98.062 C 193.346 99.222, 193.072 100.406, 193.359 100.692 C 193.645 100.979, 193.344 101.795, 192.690 102.506 L 191.500 103.799 190.087 102.650 L 188.675 101.500 188.254 102.750 C 188.023 103.437, 187.001 104, 185.984 104 L 184.135 104 183.500 106 C 183.151 107.100, 182.293 108, 181.593 108 C 180.152 108, 178 112.158, 178 114.941 L 178 116.787 181.750 115.984 C 183.813 115.541, 188.200 114.885, 191.500 114.525 L 197.500 113.869 201.733 114.825 L 205.967 115.780 201.362 110.390 C 198.829 107.425, 197.102 105, 197.524 105 C 199.540 105, 213.185 112.318, 213.707 113.680 L 214.302 115.230 218.446 114.662 C 220.726 114.350, 223.358 113.800, 224.295 113.440 L 226 112.786 226 115.310 C 226 116.698, 226.563 118.060, 227.250 118.338 L 228.500 118.842 226.797 118.921 C 224.381 119.033, 220 121.153, 220 122.211 L 220 123.100 224.715 122.800 L 229.430 122.500 229.790 124.260 L 230.150 126.020 227.098 126.630 C 225.419 126.966, 223.622 127.750, 223.105 128.373 C 222.589 128.996, 221.844 135.843, 221.451 143.590 L 220.736 157.674 222.463 159.087 C 223.413 159.864, 225.251 161.470, 226.547 162.657 C 227.844 163.843, 230.613 165.360, 232.702 166.027 C 234.791 166.695, 236.913 167.622, 237.417 168.088 L 238.334 168.934 236.417 169.649 C 233.362 170.788, 224.570 177.533, 221.707 180.937 L 219.084 184.053 219.889 186.229 L 220.694 188.405 227.058 189.818 L 233.423 191.232 233.795 190.116 C 234.379 188.364, 236.805 188.805, 239.077 191.077 L 241.155 193.155 240.615 194.560 L 240.076 195.966 238.530 195.373 C 237.680 195.047, 235.976 195.433, 234.742 196.232 C 233.509 197.030, 231.262 197.988, 229.750 198.361 C 225.901 199.309, 226.323 200.745, 231 202.617 C 235.090 204.253, 236.040 205.664, 233.667 206.574 C 232.933 206.856, 232.333 207.742, 232.333 208.543 L 232.333 210 238.417 210.158 C 241.762 210.246, 245.400 210.251, 246.500 210.171 L 248.500 210.026 246.559 211.513 C 245.491 212.331, 244.029 213.056, 243.309 213.125 C 242.589 213.194, 241.550 213.363, 241 213.500 C 240.450 213.637, 239.296 213.806, 238.435 213.875 C 237.574 213.944, 234.364 216.505, 231.302 219.568 L 225.734 225.135 227.036 227.568 C 227.752 228.905, 228.712 230, 229.169 230 C 229.626 230, 230.001 230.563, 230.002 231.250 C 230.004 232.359, 232.559 233.829, 244.734 239.731 L 247.969 241.298 255.048 240.129 C 258.941 239.486, 262.553 239.224, 263.074 239.546 L 264.021 240.131 262.707 242.008 C 261.984 243.040, 258.942 245.551, 255.946 247.589 C 252.951 249.627, 248.203 253.735, 245.396 256.717 L 240.292 262.141 244.286 265.320 C 246.482 267.069, 255.703 276.825, 264.778 287 C 273.853 297.175, 286.953 311.514, 293.889 318.864 C 300.825 326.214, 306.393 332.610, 306.262 333.078 C 306.131 333.545, 306.694 333.671, 307.512 333.357 L 309 332.786 309 334.200 C 309 334.978, 311.813 337.682, 315.250 340.209 C 323.410 346.208, 340.840 363.271, 344.659 369 C 349.528 376.303, 360.517 398.131, 361.776 403 C 363.101 408.122, 365.633 421.543, 366.397 427.500 C 366.680 429.700, 367.149 437.800, 367.439 445.500 C 368.769 480.773, 369.315 490.080, 370.011 489.319 C 372.760 486.310, 375.475 459.652, 376.510 425.500 C 376.810 415.600, 377.247 405.363, 377.481 402.750 L 377.906 398 376.830 398 L 375.755 398 377.018 396.479 L 378.280 394.958 378.437 388.229 C 378.524 384.528, 378.181 380.938, 377.675 380.250 C 377.169 379.563, 377.018 379, 377.340 379 C 378.159 379, 371.783 364.218, 366.419 353.680 C 360.589 342.227, 359.687 340.635, 358.570 339.830 C 358.059 339.461, 357.530 338.408, 357.395 337.488 C 357.101 335.484, 356 334.178, 356 335.833 L 356 337 354.159 335.250 C 353.146 334.287, 352.527 333.114, 352.784 332.643 L 353.250 331.786 350.375 332.390 L 347.500 332.993 345.738 329.747 C 344.193 326.899, 335.468 308.954, 331.519 300.500 C 329.051 295.216, 324.406 284.675, 321.916 278.710 C 320.587 275.525, 317.638 270.711, 315.363 268.010 C 313.087 265.310, 310.238 261.503, 309.031 259.550 L 306.837 256 305.168 255.968 C 303.010 255.927, 301.037 254.329, 297.805 250 L 295.191 246.500 294.589 240.351 C 293.722 231.496, 292.255 224.381, 290.824 222.090 L 289.582 220.100 291.294 216.800 C 292.235 214.985, 294.574 210.800, 296.491 207.500 C 298.408 204.200, 300.918 198.688, 302.070 195.250 C 303.221 191.813, 304.524 189, 304.965 189 C 305.406 189, 306.091 186.188, 306.487 182.750 C 306.883 179.313, 307.378 175.600, 307.586 174.500 C 308.170 171.423, 308.044 135.079, 307.432 130 C 306.426 121.663, 300.091 105, 297.927 105 C 297.417 105, 297 103.186, 297 100.969 L 297 96.937 298.500 96.362 C 299.325 96.045, 300 95.314, 300 94.738 C 300 94.162, 299.053 94.547, 297.895 95.595 C 296.737 96.643, 295.612 97.388, 295.395 97.250 C 295.178 97.112, 294.523 97, 293.941 97 L 292.882 97 293.566 98.107 L 294.250 99.214 294.875 98.203 C 295.525 97.151, 296.190 105.806, 296.318 117 L 296.392 123.500 294.563 128.910 L 292.733 134.319 288.472 138.581 C 283.242 143.811, 277.922 147.167, 272 148.973 C 269.525 149.728, 266.350 151.393, 264.945 152.673 L 262.391 155 259.763 155 L 257.135 155 256.435 152.794 L 255.735 150.588 256.913 150.196 C 257.561 149.980, 255.452 148.555, 252.226 147.029 C 245.932 144.053, 240.220 139.522, 236.922 134.890 L 234.874 132.014 236.485 132.633 L 238.096 133.251 235.836 128.375 C 234.594 125.694, 232.517 122.028, 231.222 120.229 L 228.866 116.958 229.183 114.807 L 229.500 112.657 231.750 112.496 C 232.987 112.407, 234.130 112.147, 234.291 111.917 C 234.452 111.688, 235.784 109.624, 237.252 107.331 C 241.879 100.104, 250.345 95.161, 265.305 90.952 L 272.500 88.928 283.500 88.357 C 294.132 87.806, 299.050 87, 291.785 87 L 288.237 87 285.410 83.293 C 280.363 76.677, 262.483 59.291, 258.438 57.068 C 256.272 55.877, 252.250 53.590, 249.500 51.986 C 242.191 47.722, 240.051 46.870, 234.500 46.018 C 231.750 45.595, 230.063 45.193, 230.750 45.125 C 231.438 45.056, 232 44.660, 232 44.243 C 232 43.827, 227.746 43.629, 222.547 43.804 L 213.093 44.120 211.297 43.195 C 210.308 42.687, 208.938 42.472, 208.250 42.718 M 177.660 47.396 C 176.797 48.714, 175.809 51.076, 175.464 52.646 L 174.838 55.500 176 54 L 177.162 52.500 176.599 57 L 176.036 61.500 177.367 58.500 C 178.098 56.850, 178.521 55.013, 178.306 54.418 C 178.091 53.822, 178.336 51.460, 178.851 49.168 C 179.366 46.875, 179.662 45, 179.509 45 C 179.355 45, 178.524 46.078, 177.660 47.396 M 180.028 50.466 C 179.359 51.273, 178.983 52.449, 179.193 53.080 L 179.576 54.227 180.766 51.613 C 182.101 48.684, 181.842 48.281, 180.028 50.466 M 160 53.044 C 160 53.435, 160.581 54.237, 161.291 54.827 L 162.582 55.898 162.716 54.116 L 162.851 52.333 161.425 52.333 C 160.641 52.333, 160 52.653, 160 53.044 M 287.500 57 C 288.495 58.100, 289.469 59, 289.663 59 C 289.858 59, 289.455 58.100, 288.768 57 C 288.081 55.900, 287.107 55, 286.604 55 C 286.102 55, 286.505 55.900, 287.500 57 M 173.605 57.588 C 173.272 58.454, 173 60.278, 173 61.641 L 173 64.118 173.885 63.571 C 175.029 62.864, 175.891 57.050, 174.938 56.462 C 174.537 56.214, 173.937 56.721, 173.605 57.588 M 163.469 61.500 C 163.211 62.325, 162.774 63.788, 162.498 64.750 L 161.995 66.500 163.498 64.559 C 164.963 62.665, 165.531 60, 164.469 60 C 164.176 60, 163.726 60.675, 163.469 61.500 M 166.565 62.875 L 167.214 65.250 166.179 64.611 L 165.144 63.971 164.489 66.033 L 163.835 68.096 165.031 69.537 C 166.331 71.104, 168.048 70.601, 167.921 68.691 L 167.842 67.500 167.336 68.756 C 166.691 70.356, 165 69.361, 165 67.382 C 165 66.557, 165.359 66.104, 165.798 66.375 C 166.237 66.646, 167.098 66.557, 167.713 66.177 L 168.831 65.487 167.374 62.993 L 165.917 60.500 166.565 62.875 M 328.684 67.723 C 329.554 70.350, 330.722 72.950, 331.280 73.500 L 332.294 74.500 331.539 72.500 C 331.123 71.400, 330.365 69.054, 329.855 67.286 C 329.344 65.519, 328.516 63.819, 328.014 63.509 C 327.513 63.199, 327.815 65.095, 328.684 67.723 M 326 77.882 C 326 78.982, 326.450 80.160, 327 80.500 L 328 81.118 328 79.118 C 328 78.018, 327.550 76.840, 327 76.500 L 326 75.882 326 77.882 M 324.189 80.500 C 324.215 81.600, 324.580 83.850, 325 85.500 L 325.763 88.500 325.811 85.500 C 325.838 83.850, 325.473 81.600, 325 80.500 L 324.141 78.500 324.189 80.500 M 297.155 87.671 C 298.066 87.913, 299.100 89.264, 299.454 90.673 C 299.808 92.083, 300.354 92.979, 300.669 92.665 C 300.983 92.350, 300.953 90.947, 300.601 89.547 L 299.962 87 297.731 87.116 L 295.500 87.232 297.155 87.671 M 272.500 91.602 C 263.936 93.677, 250.535 98.543, 246.714 100.966 L 242.088 103.900 239.377 108.194 L 236.667 112.488 236.707 117.994 L 236.748 123.500 239.028 129.469 L 241.308 135.438 246.503 140.634 L 251.699 145.830 255.945 147.102 L 260.190 148.374 266.410 147.308 C 269.831 146.722, 275.236 144.967, 278.420 143.408 L 284.210 140.573 287.551 136.670 C 289.388 134.523, 291.591 130.714, 292.446 128.205 L 294 123.644 293.994 115.072 C 293.987 104.367, 292.693 99.601, 288.621 95.285 L 285.427 91.900 279.964 91.509 C 276.959 91.294, 273.600 91.336, 272.500 91.602 M 120.174 105.367 C 118.978 107.760, 118.004 110.345, 118.010 111.110 C 118.015 111.874, 119.150 110.072, 120.531 107.105 C 123.550 100.620, 123.256 99.194, 120.174 105.367 M 318.118 101.500 C 318.100 102.050, 318.702 104.975, 319.457 108 L 320.830 113.500 320.839 110.500 C 320.847 107.816, 318.201 99.062, 318.118 101.500 M 333 102.941 C 333 103.459, 333.450 104.160, 334 104.500 C 334.550 104.840, 335 106.066, 335 107.226 C 335 108.385, 335.268 109.066, 335.595 108.738 C 336.463 107.870, 335.005 102, 333.921 102 C 333.414 102, 333 102.423, 333 102.941 M 268.500 104.348 C 267.400 104.982, 265.916 105.878, 265.201 106.339 L 263.903 107.178 264.894 108.373 L 265.886 109.567 265.068 110.890 L 264.250 112.214 263.566 111.107 C 263.190 110.498, 263.160 109.550, 263.500 109 C 264.500 107.382, 263.008 107.848, 260.255 110.014 C 258.847 111.122, 257.426 111.735, 257.097 111.377 C 256.769 111.019, 257.056 110.527, 257.737 110.284 C 258.417 110.041, 259.992 108.993, 261.237 107.954 L 263.500 106.067 261.564 106.033 C 260.500 106.015, 258.653 106.917, 257.460 108.037 L 255.292 110.075 255.757 112.507 C 256.012 113.844, 256.814 115.431, 257.539 116.032 L 258.856 117.126 261.714 115.648 C 263.285 114.836, 265.185 113.023, 265.936 111.619 C 266.687 110.216, 267.684 109.304, 268.151 109.593 C 268.618 109.882, 269 109.381, 269 108.480 L 269 106.841 272 107.500 L 275 108.159 275 106.520 C 275 105.619, 274.597 105.131, 274.105 105.435 C 273.612 105.740, 272.952 105.316, 272.636 104.494 C 271.976 102.774, 271.276 102.749, 268.500 104.348 M 333.115 113 C 333.069 114.375, 333.467 116.175, 334 117 L 334.969 118.500 334.885 117 C 334.839 116.175, 334.440 114.375, 334 113 L 333.199 110.500 333.115 113 M 336.598 114 C 336.941 115.925, 337.201 118.279, 337.175 119.230 C 337.149 120.182, 337.549 121.221, 338.064 121.539 L 339 122.118 338.924 119.809 C 338.882 118.539, 338.201 115.925, 337.411 114 L 335.974 110.500 336.598 114 M 116.500 116 C 116.120 117.729, 116.035 119.368, 116.310 119.643 C 116.585 119.918, 117.120 118.729, 117.500 117 C 117.880 115.271, 117.965 113.632, 117.690 113.357 C 117.415 113.082, 116.880 114.271, 116.500 116 M 182.676 118.403 C 180.572 119.180, 178.664 120.002, 178.436 120.231 C 178.208 120.459, 179.318 121.889, 180.904 123.408 L 183.787 126.170 190.643 126.493 C 194.415 126.671, 198.314 126.858, 199.309 126.909 L 201.118 127 200.527 127.956 C 200.202 128.482, 199.307 128.671, 198.537 128.376 L 197.139 127.839 196.819 131.170 L 196.500 134.500 193.470 136.015 L 190.440 137.530 191.961 140.239 L 193.481 142.948 191.753 144.676 L 190.025 146.404 183.540 146.817 L 177.054 147.230 175.937 148.575 C 175.323 149.316, 174.790 151.935, 174.753 154.396 L 174.685 158.871 176.422 161.522 C 179.090 165.594, 177.620 165.555, 173.056 161.432 L 168.935 157.709 165.467 150.499 L 162 143.290 162 138.079 C 162 135.213, 162.495 131.944, 163.100 130.814 L 164.200 128.759 163.173 129.393 C 162.608 129.742, 161.627 131.601, 160.992 133.524 L 159.838 137.020 160.913 142.031 C 162.938 151.471, 169.852 162.791, 175.414 165.772 L 178.500 167.426 187.568 167.463 L 196.635 167.500 202.568 164.474 L 208.500 161.448 208.814 157.086 C 209.161 152.275, 207.590 147.440, 205.408 146.603 C 204.634 146.306, 204 145.458, 204 144.719 C 204 143.018, 209.706 138.747, 212.167 138.606 C 213.189 138.548, 214.020 138.162, 214.013 137.750 C 214.006 137.338, 214 136.502, 214 135.893 L 214 134.786 212.500 135.362 L 211 135.937 211 134.528 C 211 133.752, 211.410 132.865, 211.911 132.555 C 213.035 131.860, 212.794 130.210, 211.125 127.172 C 210.422 125.891, 210.111 124.154, 210.434 123.311 L 211.023 121.777 209.523 122.353 L 208.024 122.928 208.262 121.781 C 208.393 121.150, 207.150 119.940, 205.500 119.093 L 202.500 117.553 194.500 117.272 L 186.500 116.990 182.676 118.403 M 339.391 123.690 L 338.282 124.073 339.014 128.076 C 339.808 132.420, 340.595 133.738, 341.721 132.612 C 342.118 132.216, 341.809 131.500, 341.035 131.022 L 339.629 130.152 340.830 128.705 L 342.031 127.258 341.265 125.283 C 340.844 124.197, 340.001 123.480, 339.391 123.690 M 203 128.800 C 203 130.297, 205.394 132, 207.450 131.967 L 209.500 131.933 207.139 129.967 C 204.672 127.911, 203 127.440, 203 128.800 M 342.670 142.766 C 342.984 144.012, 343.637 145.276, 344.121 145.575 C 345.489 146.420, 345.156 144.591, 343.550 142.441 L 342.099 140.500 342.670 142.766 M 242.687 161.805 C 241.209 163.347, 240.001 164.810, 240.001 165.055 C 240.002 165.300, 242.679 165.500, 245.951 165.500 L 251.899 165.500 253.126 164.274 L 254.353 163.047 252.521 161.024 L 250.690 159 248.032 159 L 245.374 159 242.687 161.805 M 276.750 167.162 L 281 171.576 281.015 173.538 C 281.024 174.617, 281.467 176.175, 282 177 L 282.969 178.500 282.985 175.338 L 283 172.177 284.471 172.393 C 285.280 172.512, 286.243 172.910, 286.611 173.277 C 287.676 174.343, 289 173.055, 289 170.954 L 289 169.025 285.052 166.533 C 282.880 165.162, 279.168 163.749, 276.802 163.394 L 272.500 162.748 276.750 167.162 M 203.244 166.739 C 202.553 166.976, 202.176 167.476, 202.407 167.850 C 202.638 168.223, 201.461 168.584, 199.791 168.652 C 198.122 168.721, 196.466 169.247, 196.111 169.821 C 195.755 170.396, 193.223 171.613, 190.482 172.526 C 187.742 173.439, 184.837 174.823, 184.027 175.601 L 182.554 177.017 184.396 180.437 C 185.409 182.317, 188.029 185.296, 190.218 187.055 L 194.199 190.254 193.623 193.133 L 193.048 196.011 194.221 198.586 L 195.394 201.160 199.241 203.123 C 201.356 204.202, 204.049 206.191, 205.224 207.543 C 210.170 213.231, 211.820 209.114, 208.028 200.546 C 205.403 194.616, 203.528 189.639, 203.489 188.500 C 203.471 187.950, 204.253 184.585, 205.228 181.022 C 207.170 173.922, 207.516 169, 206.073 169 C 205.564 169, 205.001 168.394, 204.823 167.653 C 204.645 166.913, 203.935 166.501, 203.244 166.739 M 146.032 178.993 C 146.565 180.915, 147 182.588, 147 182.712 C 147 182.836, 146.213 182.684, 145.250 182.374 L 143.500 181.811 144.813 182.753 C 145.534 183.271, 146.164 185.064, 146.212 186.737 L 146.298 189.779 147.620 189.585 C 148.347 189.479, 149.292 189.041, 149.719 188.614 L 150.497 187.836 148.557 186.418 L 146.618 185 148.509 185 L 150.400 185 149.200 183.800 C 148.540 183.140, 148 181.876, 148 180.991 C 148 180.106, 147.340 178.509, 146.532 177.441 L 145.064 175.500 146.032 178.993 M 272.607 180.582 C 271.748 182.821, 271.784 182.869, 273.931 182.308 C 274.993 182.030, 276.104 181.172, 276.399 180.401 L 276.937 179 275.076 179 C 274.052 179, 272.941 179.712, 272.607 180.582 M 155.084 180.500 C 155.084 181.050, 155.946 183.075, 157 185 C 158.054 186.925, 158.916 188.050, 158.916 187.500 C 158.916 186.950, 158.054 184.925, 157 183 C 155.946 181.075, 155.084 179.950, 155.084 180.500 M 118.524 185.357 C 118.236 186.261, 117.789 187.675, 117.531 188.500 C 117.274 189.325, 117.450 190, 117.923 190 C 118.924 190, 120.350 185.017, 119.572 184.239 C 119.283 183.950, 118.811 184.453, 118.524 185.357 M 116.068 193.950 L 116 197.400 117.167 196.233 L 118.335 195.065 117.235 192.783 L 116.135 190.500 116.068 193.950 M 160.064 191.500 C 160.064 192.050, 160.724 193.374, 161.532 194.441 C 162.339 195.509, 163 195.932, 163 195.382 C 163 194.832, 162.339 193.509, 161.532 192.441 C 160.724 191.374, 160.064 190.950, 160.064 191.500 M 245 193 L 243.500 193.969 245 193.969 C 245.825 193.969, 247.175 193.533, 248 193 L 249.500 192.031 248 192.031 C 247.175 192.031, 245.825 192.467, 245 193 M 307.070 205.691 C 307.032 206.896, 307.450 208.160, 308 208.500 C 309.183 209.231, 309.183 208.252, 308 205.500 L 307.141 203.500 307.070 205.691 M 329.834 220.944 L 329.447 225 330.661 225 L 331.874 225 331.296 221.250 C 330.519 216.215, 330.290 216.167, 329.834 220.944 M 426.250 333.709 C 423.363 334.560, 421 335.553, 421 335.916 C 421 336.279, 422.238 338.023, 423.750 339.793 L 426.500 343.011 428.729 342.394 L 430.958 341.778 429.479 339.666 C 428.665 338.505, 428.007 336.643, 428.015 335.527 L 428.031 333.500 428.939 334.936 L 429.848 336.371 431.424 335.063 C 433.064 333.702, 433.552 331.941, 432.250 332.081 C 431.837 332.125, 429.137 332.858, 426.250 333.709 M 331.624 411.800 C 331.352 412.240, 332.225 412.600, 333.565 412.600 C 334.904 412.600, 336 412.240, 336 411.800 C 336 411.360, 335.127 411, 334.059 411 C 332.991 411, 331.896 411.360, 331.624 411.800 M 345.684 412.649 C 345.328 413.006, 343.790 413.385, 342.268 413.492 C 340.746 413.599, 338.488 413.757, 337.250 413.843 C 333.003 414.139, 335.004 415.500, 339.752 415.545 C 342.363 415.569, 345.515 415.938, 346.755 416.364 L 349.010 417.138 349.651 415.468 L 350.291 413.798 348.896 412.914 C 347.213 411.849, 346.540 411.793, 345.684 412.649 M 416.226 418.250 C 415.665 418.938, 414.693 421.300, 414.066 423.500 L 412.924 427.500 413.840 433.500 L 414.756 439.500 414.957 434 C 415.067 430.975, 415.385 429.063, 415.662 429.750 C 415.940 430.438, 416.606 431, 417.142 431 C 417.679 431, 417.840 430.550, 417.500 430 C 417.160 429.450, 417.347 429, 417.916 429 L 418.950 429 418.388 432.250 C 418.080 434.038, 417.643 436.094, 417.418 436.819 L 417.010 438.138 419.218 437.819 L 421.426 437.500 422.136 434.011 L 422.845 430.522 421.791 429.871 L 420.736 429.219 421.388 425.744 C 422.094 421.984, 421.317 418.686, 419.928 419.545 C 419.454 419.838, 419.315 421.323, 419.619 422.845 L 420.172 425.612 418.394 427.056 C 417.416 427.850, 416.898 428.029, 417.242 427.452 C 417.586 426.876, 417.481 425.778, 417.007 425.011 L 416.146 423.618 417.552 420.899 C 418.325 419.404, 419.530 417.951, 420.229 417.669 L 421.500 417.158 419.372 417.079 C 418.202 417.036, 416.786 417.563, 416.226 418.250 M 0.476 500.500 C 0.476 542.850, 0.599 560.029, 0.750 538.676 C 0.900 517.323, 0.900 482.673, 0.750 461.676 C 0.599 440.679, 0.476 458.150, 0.476 500.500 M 419.769 433.956 C 419.078 436.417, 419.491 437.842, 420.581 436.753 C 420.900 436.433, 421.004 435.121, 420.810 433.836 L 420.459 431.500 419.769 433.956 M 413.545 536.250 C 413.919 537.487, 414.636 538.940, 415.140 539.477 C 415.643 540.015, 415.548 539.002, 414.929 537.227 C 413.663 533.594, 412.493 532.769, 413.545 536.250 M 353.270 563.474 L 352.040 564.873 353.853 564.736 C 354.851 564.661, 355.667 564.015, 355.667 563.300 C 355.667 561.641, 354.829 561.702, 353.270 563.474 M 357.638 564.224 C 357.913 564.669, 358.590 564.753, 359.143 564.412 C 359.696 564.070, 361.352 564.850, 362.824 566.145 L 365.500 568.500 363.142 565.820 L 360.783 563.141 358.961 563.278 C 357.959 563.353, 357.363 563.779, 357.638 564.224 M 349.200 566.200 C 347.137 568.263, 347.899 577, 350.142 577 L 351.070 577 350.149 575.250 C 348.922 572.921, 348.970 567.809, 350.233 566.250 C 351.524 564.656, 350.780 564.620, 349.200 566.200 M 351.437 567.102 L 350.691 568.309 351.957 567.526 L 353.224 566.744 354.188 568.122 L 355.152 569.500 354.764 568.063 C 354.245 566.143, 352.365 565.600, 351.437 567.102 M 355.954 572.086 C 355.340 573.233, 355.026 574.360, 355.257 574.590 C 355.487 574.820, 356.189 573.882, 356.816 572.504 C 358.194 569.480, 357.523 569.154, 355.954 572.086" stroke="none" fill="#454653" fill-rule="evenodd"/></svg>